<?xml version="1.0" encoding="utf-8"?>
<!-- Generator: Adobe Illustrator 24.1.1, SVG Export Plug-In . SVG Version: 6.00 Build 0)  -->
<svg version="1.2" baseProfile="tiny" id="Calque_1"
	 xmlns="http://www.w3.org/2000/svg" xmlns:xlink="http://www.w3.org/1999/xlink" x="0px" y="0px" viewBox="0 0 331.19 98.4"
	 xml:space="preserve">
<g>
	<path fill="#F2DC6B" d="M62.4,44.64v26.88c0,1.8,1.08,3.48,2.64,4.2l1.8,0.96c0.24,0.12,0.36,0.36,0.36,0.6c0,0.36-0.36,0.72-0.72,0.72
		c-2.04-0.12-7.44-0.48-11.28-2.4c-3.84,1.92-9.24,2.28-11.28,2.4c-0.36,0-0.72-0.36-0.72-0.72c0-0.24,0.12-0.48,0.36-0.6l1.8-0.96
		C46.92,75,48,73.32,48,71.52V49.08C35.28,47.64,29.28,34.8,16.8,34.8c-4.8,0-9.6,3-9.6,9.6c0,4.2,3,7.8,7.2,7.8c3.6,0,6-2.4,6-5.4
		s-1.8-5.4-4.8-5.4c-1.44,0-2.4,0.36-3.12,0.84c-0.48,0.24-1.08-0.12-1.08-0.72c0-0.12,0-0.24,0.12-0.24
		c0.36-0.72,1.8-2.88,5.88-2.88c4.2,0,7.8,3,7.8,7.8c0,3.12-1.92,6.48-6,8.04v17.28c0,1.8,1.08,3.48,2.64,4.2l1.8,0.96
		c0.24,0.12,0.36,0.36,0.36,0.6c0,0.36-0.36,0.72-0.72,0.72c-2.04-0.12-7.44-0.48-11.28-2.4C8.16,77.52,2.76,77.88,0.72,78
		C0.36,78,0,77.64,0,77.28c0-0.24,0.12-0.48,0.36-0.6l1.8-0.96c1.56-0.72,2.64-2.4,2.64-4.2v-19.2C1.92,50.28,0,47.04,0,43.2
		s1.8-7.2,4.8-9.48V7.8c0-1.8-1.08-3.48-2.64-4.32l-1.8-0.84C0.12,2.52,0,2.28,0,1.92C0,1.56,0.36,1.2,0.72,1.2h22.56
		C23.64,1.2,24,1.56,24,1.92c0,0.36-0.12,0.6-0.36,0.72l-1.8,0.84C20.28,4.32,19.2,6,19.2,7.8v22.32c11.28,0.6,20.04,5.4,28.8,7.44
		V7.8c0-1.8-1.08-3.48-2.64-4.32l-1.8-0.84c-0.24-0.12-0.36-0.36-0.36-0.72c0-0.36,0.36-0.72,0.72-0.72h22.56
		c0.36,0,0.72,0.36,0.72,0.72c0,0.36-0.12,0.6-0.36,0.72l-1.8,0.84C63.48,4.32,62.4,6,62.4,7.8v29.4c1.56-0.6,2.64-1.32,3.36-1.92
		c0.6-0.48,1.44-0.12,1.44,0.6c0,0.12,0,0.12,0,0.24C67.08,36.72,66,41.16,62.4,44.64z"/>
	<path fill="#F2DC6B" d="M122.4,21.12c0,0.24-0.24,0.6-0.48,0.72l-3.84,1.92c-0.84,0.48-1.68,1.2-2.04,2.04L103.2,50.76V71.4
		c0,1.8,1.08,3.48,2.64,4.32l1.8,0.84c0.24,0.12,0.36,0.36,0.36,0.72c0,0.36-0.36,0.72-0.72,0.72H84.72C84.36,78,84,77.64,84,77.28
		c0-0.36,0.12-0.6,0.36-0.72l1.8-0.84c1.56-0.84,2.64-2.52,2.64-4.32V50.76L75.96,25.8c-0.48-0.84-1.2-1.56-2.04-2.04l-3.96-1.92
		c-0.24-0.12-0.36-0.48-0.36-0.72c0-0.36,0.36-0.72,0.72-0.72h22.56c0.36,0,0.72,0.36,0.72,0.72c0,0.24-0.12,0.6-0.36,0.72
		c-1.44,0.6-1.92,2.28-1.2,3.6l9.36,18.36l8.64-16.92c0.96-1.92,0.24-4.2-1.68-5.04c-0.24-0.12-0.36-0.48-0.36-0.72
		c0-0.36,0.36-0.72,0.72-0.72h12.96C122.04,20.4,122.4,20.76,122.4,21.12z"/>
	<path fill="#F2DC6B" d="M201.59,88.68c0,0.12,0,0.12,0,0.24c-0.36,0.96-3.12,9.48-14.4,9.48c-9.6,0-18-3.6-30-22.8c-6-9.6-8.4-16.8-13.2-16.8v12.6
		c0,1.8,1.08,3.48,2.64,4.32l1.8,0.84c0.24,0.12,0.36,0.48,0.36,0.72c0,0.36-0.36,0.72-0.72,0.72c-2.04-0.12-7.44-0.48-11.28-2.4
		c-3.84,1.92-9.24,2.28-11.28,2.4c-0.36,0-0.72-0.36-0.72-0.72c0-0.24,0.12-0.6,0.36-0.72l1.8-0.84c1.56-0.84,2.64-2.52,2.64-4.32
		V27c0-1.8-1.08-3.48-2.64-4.32l-1.8-0.84c-0.24-0.12-0.36-0.36-0.36-0.72c0-0.36,0.36-0.72,0.72-0.72h25.68
		c16.8,0,26.4,4.8,26.4,19.2c0,11.04-5.64,16.44-15.96,18.36c4.56,2.88,7.44,7.2,9.96,12.84c6.48,14.76,10.8,21.6,19.2,21.6
		c5.28,0,8.16-2.4,9.6-4.08C200.75,87.84,201.59,88.08,201.59,88.68z M144,54h7.2c4.8,0,12-2.4,12-14.4s-7.2-14.4-12-14.4H144V54z"
		/>
	<path fill="#F2DC6B" d="M290.39,21.12c0,0.36-0.12,0.6-0.36,0.72l-3.84,1.8c-1.08,0.6-1.92,1.56-2.4,2.76l-16.92,50.76
		c-0.12,0.48-0.6,0.84-1.08,0.84h-3.36c-0.48,0-0.96-0.36-1.08-0.84C248.39,33.24,244.67,4.8,226.79,4.8c-7.2,0-12,4.8-12,12
		c0,4.8,3.6,9.6,8.4,9.6s7.2-3.6,7.2-7.2c0-3.6-2.4-6-6-6c-1.56,0-2.64,0.48-3.36,0.96c-0.6,0.36-1.44,0-1.44-0.72l0.12-0.48
		c0.36-0.72,1.92-3.36,7.08-3.36c6,0,9.6,4.8,9.6,9.6c0,3.6-2.16,6.84-5.76,8.76c4.32,5.04,6.96,12.24,6.96,21.24
		c0,19.2-12,30-26.4,30s-26.4-10.8-26.4-30c0-17.28,9.72-27.72,22.08-29.64c-0.36-1.2-0.48-2.52-0.48-3.96c0-9.6,9.6-15.6,20.4-15.6
		c20.4,0,32.4,21.6,42.24,55.68L278.51,27c0.72-2.04-0.24-4.2-2.16-5.16c-0.24-0.12-0.36-0.36-0.36-0.72c0-0.36,0.36-0.72,0.72-0.72
		h12.96C290.03,20.4,290.39,20.76,290.39,21.12z M209.4,24.24c-5.4,1.56-10.2,9.84-10.2,24.96c0,16.8,6,25.2,12,25.2s12-8.4,12-25.2
		c0-8.76-1.68-15.24-4.08-19.44C215.51,29.16,211.79,27.36,209.4,24.24z"/>
	<path fill="#F2DC6B" d="M331.19,77.28c0,0.36-0.36,0.72-0.72,0.72h-22.56c-0.36,0-0.72-0.36-0.72-0.72c0-0.24,0.12-0.6,0.36-0.72
		c1.92-0.96,2.88-3.12,2.16-5.16l-1.56-4.44c-3.48,1.44-7.56,2.64-12.96,2.64c-1.56,0-3-0.12-4.32-0.48l-0.72,2.28
		c-0.6,2.04,0.24,4.2,2.16,5.16h0.12c0.24,0.12,0.36,0.48,0.36,0.72c0,0.36-0.36,0.72-0.72,0.72h-12.96c-0.36,0-0.72-0.36-0.72-0.72
		c0-0.24,0.12-0.6,0.36-0.72l3.72-1.8c1.2-0.6,2.04-1.56,2.52-2.76l1.44-4.44c-6.24-3.48-7.8-10.2-8.04-11.04c0-0.12,0-0.12,0-0.24
		c0-0.72,0.84-1.08,1.44-0.6c1.44,1.32,4.32,2.88,9.48,3.12l12.48-37.56c0.24-0.48,0.72-0.84,1.2-0.84h3.36
		c0.48,0,0.96,0.36,1.08,0.84l11.88,33.96c8.64,0,11.4,5.88,11.76,7.08c0.12,0.12,0.12,0.12,0.12,0.24c0,0.84-0.84,1.32-1.56,0.84
		c-1.2-1.08-3.48-2.16-6.84-2.16c-0.48,0-0.96,0-1.44,0.12l3.84,10.92c0.48,1.2,1.32,2.16,2.4,2.76l3.24,1.56
		C331.07,76.68,331.19,77.04,331.19,77.28z M304.8,57.24l-5.04-14.52l-5.28,15.96C298.2,58.44,301.56,57.84,304.8,57.24z"/>
</g>
<g>
</g>
<g>
</g>
<g>
</g>
<g>
</g>
<g>
</g>
<g>
</g>
<g>
</g>
<g>
</g>
<g>
</g>
<g>
</g>
<g>
</g>
<g>
</g>
<g>
</g>
<g>
</g>
<g>
</g>
</svg>
